<svg width="12" height="12" fill="none" xmlns="http://www.w3.org/2000/svg"><path d="M6 0c.813 0 1.59.158 2.33.475.741.317 1.38.744 1.915 1.28a6.029 6.029 0 011.28 1.915C11.84 4.41 12 5.188 12 6c0 .808-.157 1.583-.472 2.324a5.981 5.981 0 01-1.276 1.915 6.071 6.071 0 01-1.915 1.282C7.596 11.841 6.817 12 6 12a5.883 5.883 0 01-2.337-.475 5.961 5.961 0 01-1.912-1.283A6.107 6.107 0 01.475 8.327 5.841 5.841 0 010 6c0-.813.158-1.59.475-2.33a6.028 6.028 0 011.28-1.916A6.028 6.028 0 013.67.475 5.865 5.865 0 016 0zm4.145 9.047c.665-.915.998-1.93.998-3.047 0-.696-.136-1.362-.409-1.996a5.188 5.188 0 00-1.098-1.64 5.189 5.189 0 00-1.64-1.098A5.004 5.004 0 006 .857c-.696 0-1.362.136-1.996.409a5.189 5.189 0 00-1.64 1.098 5.189 5.189 0 00-1.098 1.64A5.004 5.004 0 00.857 6c0 1.116.333 2.132.998 3.047.295-1.46.978-2.19 2.049-2.19A2.894 2.894 0 006 7.714c.813 0 1.511-.285 2.096-.857 1.071 0 1.754.73 2.05 2.19zM8.571 4.714c0-.71-.25-1.316-.753-1.818A2.477 2.477 0 006 2.143c-.71 0-1.316.251-1.818.753a2.477 2.477 0 00-.753 1.818c0 .71.25 1.316.753 1.818A2.477 2.477 0 006 7.286c.71 0 1.316-.251 1.818-.754a2.477 2.477 0 00.753-1.818z" fill="#1053AB"/></svg>