<svg width="13" height="12" fill="none" xmlns="http://www.w3.org/2000/svg"><path clip-rule="evenodd" d="M3.75 1c.182 0 .357.075.486.21a.729.729 0 01.202.504v1.429c0 .19-.073.371-.202.505a.675.675 0 01-.486.21.675.675 0 01-.486-.21.729.729 0 01-.201-.505V1.714c0-.19.072-.37.2-.505A.675.675 0 013.75 1z"/><path d="M12 2.429H4.437m-1.374 0H1"/><path clip-rule="evenodd" d="M3.75 8.143c.182 0 .357.075.486.209a.729.729 0 01.202.505v1.428c0 .19-.073.372-.202.505a.674.674 0 01-.486.21.675.675 0 01-.486-.21.729.729 0 01-.201-.505V8.857a.73.73 0 01.2-.505.675.675 0 01.487-.21z"/><path d="M12 9.571H4.437m-1.374 0H1"/><path clip-rule="evenodd" d="M9.25 4.571c.182 0 .357.076.486.21a.729.729 0 01.201.505v1.428a.73.73 0 01-.2.505.675.675 0 01-.487.21.675.675 0 01-.486-.21.729.729 0 01-.201-.505V5.286c0-.19.072-.372.2-.505a.675.675 0 01.487-.21z"/><path d="M8.563 6H1m11 0H9.937"/></svg>