<svg width="8" height="8" fill="none" xmlns="http://www.w3.org/2000/svg"><path d="M1.89 7.333l.475-.474L1.14 5.635l-.474.474v.558h.666v.666h.558zM4.616 2.5c0-.076-.039-.115-.115-.115a.12.12 0 00-.089.037L1.59 5.245a.12.12 0 00-.037.088c0 .077.038.115.115.115a.12.12 0 00.088-.037L4.578 2.59a.12.12 0 00.037-.089zm-.282-1L6.5 3.667 2.167 8H0V5.833L4.333 1.5zm3.558.5c0 .184-.065.34-.193.469l-.865.864-2.166-2.166.864-.86A.619.619 0 016 .11c.184 0 .342.066.474.198l1.224 1.219A.667.667 0 017.89 2z"/></svg>