<svg width="12" height="12" fill="none" xmlns="http://www.w3.org/2000/svg"><path d="M.923 11.143H3V9.214H.923v1.929zm2.539 0h2.307V9.214H3.462v1.929zM.923 8.786H3V6.643H.923v2.143zm2.539 0h2.307V6.643H3.462v2.143zM.923 6.214H3V4.286H.923v1.928zm5.308 4.929h2.307V9.214H6.231v1.929zM3.46 6.214h2.31V4.286H3.462v1.928zM9 11.143h2.077V9.214H9v1.929zM6.23 8.786h2.308V6.643H6.231v2.143zM3.693 3V1.071a.199.199 0 00-.068-.15.23.23 0 00-.162-.064H3a.23.23 0 00-.162.064.199.199 0 00-.069.15V3c0 .058.023.108.069.15A.23.23 0 003 3.215h.462a.23.23 0 00.162-.063A.199.199 0 003.692 3zM9 8.786h2.077V6.643H9v2.143zM6.23 6.214h2.308V4.286H6.231v1.928zm2.77 0h2.077V4.286H9v1.928zM9.23 3V1.071a.199.199 0 00-.068-.15A.23.23 0 009 .857h-.462a.23.23 0 00-.162.064.199.199 0 00-.068.15V3c0 .058.023.108.068.15a.23.23 0 00.162.064H9a.23.23 0 00.162-.063A.199.199 0 009.231 3zM12 2.571v8.572a.796.796 0 01-.274.602.922.922 0 01-.65.255H.924a.922.922 0 01-.649-.255.796.796 0 01-.274-.602V2.57c0-.232.091-.433.274-.602a.922.922 0 01.65-.255h.922V1.07c0-.294.113-.546.34-.756C2.41.105 2.682 0 3 0h.462c.317 0 .588.105.814.315.226.21.34.462.34.756v.643h2.769v-.643c0-.294.113-.546.339-.756C7.95.105 8.22 0 8.538 0H9c.317 0 .589.105.815.315.226.21.339.462.339.756v.643h.923c.25 0 .466.085.649.255.183.17.274.37.274.602z"/></svg>