<svg width="12" height="12" fill="none" xmlns="http://www.w3.org/2000/svg"><path d="M9.23 10.56a.47.47 0 00-.136-.338.435.435 0 00-.325-.142.435.435 0 00-.324.143.47.47 0 00-.137.337c0 .13.045.242.137.338.091.095.2.142.324.142a.435.435 0 00.325-.142.47.47 0 00.137-.338zm1.847 0a.47.47 0 00-.137-.338.435.435 0 00-.325-.142.435.435 0 00-.324.143.47.47 0 00-.137.337c0 .13.046.242.137.338.091.095.2.142.324.142a.435.435 0 00.325-.142.47.47 0 00.137-.338zM12 8.88v2.4c0 .2-.067.37-.202.51a.655.655 0 01-.49.21H.692a.655.655 0 01-.49-.21.709.709 0 01-.202-.51v-2.4c0-.2.067-.37.202-.51a.655.655 0 01.49-.21h3.08c.1.28.27.51.508.69.238.18.504.27.797.27h1.846c.293 0 .559-.09.797-.27.238-.18.407-.41.508-.69h3.08c.192 0 .356.07.49.21.135.14.202.31.202.51zM9.656 4.02c-.081.2-.223.3-.425.3H7.385v3.36a.47.47 0 01-.137.338.435.435 0 01-.325.142H5.077a.435.435 0 01-.325-.143.47.47 0 01-.137-.337V4.32H2.77c-.202 0-.344-.1-.425-.3a.438.438 0 01.1-.517L5.676.143A.42.42 0 016 0a.42.42 0 01.325.142l3.23 3.36c.15.15.183.323.101.518z"/></svg>