<svg width="12" height="12" fill="none" xmlns="http://www.w3.org/2000/svg"><path d="M8 6c0-.552-.195-1.023-.586-1.414A1.927 1.927 0 006 4c-.552 0-1.023.195-1.414.586C4.196 4.976 4 5.448 4 6c0 .552.195 1.023.586 1.414.39.39.862.586 1.414.586.552 0 1.023-.195 1.414-.586C7.804 7.024 8 6.552 8 6zm4-.852v1.735a.3.3 0 01-.063.18.238.238 0 01-.156.101l-1.445.219c-.099.281-.2.518-.305.71.182.261.461.62.836 1.079a.302.302 0 01.078.195.26.26 0 01-.07.18c-.14.193-.398.474-.773.844s-.62.554-.735.554a.381.381 0 01-.203-.07l-1.078-.844c-.23.12-.466.219-.711.297-.083.709-.159 1.193-.227 1.453-.036.146-.13.219-.28.219H5.132a.295.295 0 01-.192-.066.232.232 0 01-.09-.168l-.218-1.438a4.833 4.833 0 01-.703-.289l-1.102.836a.28.28 0 01-.195.07.27.27 0 01-.196-.086c-.656-.593-1.085-1.03-1.289-1.312a.306.306 0 01.008-.36c.078-.109.211-.282.399-.519.187-.237.328-.42.422-.55a3.866 3.866 0 01-.32-.774l-1.43-.211a.246.246 0 01-.165-.098A.295.295 0 010 6.852V5.117c0-.062.02-.122.063-.18a.235.235 0 01.148-.101l1.453-.219c.073-.24.175-.479.305-.719a17.78 17.78 0 00-.836-1.078.294.294 0 01-.078-.187.33.33 0 01.07-.18c.135-.187.392-.467.77-.84.377-.372.623-.558.738-.558.068 0 .135.026.203.078l1.078.836c.23-.12.466-.219.711-.297.083-.708.159-1.193.227-1.453.036-.146.13-.219.28-.219h1.735c.073 0 .137.022.192.066.054.045.084.1.09.168l.218 1.438c.255.083.49.18.703.289l1.11-.836a.253.253 0 01.187-.07.3.3 0 01.195.078c.672.62 1.102 1.062 1.29 1.328a.252.252 0 01.054.172c0 .062-.02.122-.062.18-.078.109-.211.282-.399.519-.187.237-.328.42-.422.55.136.261.243.516.32.766l1.43.22c.068.01.123.042.165.097a.295.295 0 01.062.183z"/></svg>