<svg width="7" height="8" fill="none" xmlns="http://www.w3.org/2000/svg"><path d="M2.545 6.5V2.833a.166.166 0 00-.044-.12.151.151 0 00-.115-.046h-.318a.151.151 0 00-.114.047.166.166 0 00-.045.12V6.5c0 .049.015.089.045.12s.068.047.114.047h.318a.151.151 0 00.115-.047.166.166 0 00.044-.12zm1.273 0V2.833a.166.166 0 00-.045-.12.151.151 0 00-.114-.046h-.318a.151.151 0 00-.114.047.166.166 0 00-.045.12V6.5c0 .049.015.089.045.12s.068.047.114.047h.318a.151.151 0 00.114-.047.166.166 0 00.045-.12zm1.273 0V2.833a.166.166 0 00-.045-.12.151.151 0 00-.114-.046h-.318a.151.151 0 00-.115.047.166.166 0 00-.044.12V6.5c0 .049.014.089.044.12s.068.047.115.047h.318a.151.151 0 00.114-.047.166.166 0 00.045-.12zM2.386 1.333h2.228L4.375.724A.14.14 0 004.29.667H2.714a.14.14 0 00-.084.057l-.244.61zM7 1.5v.333a.166.166 0 01-.045.12.151.151 0 01-.114.047h-.477v4.938c0 .288-.078.537-.234.747-.156.21-.343.315-.562.315H1.432c-.219 0-.406-.102-.562-.305a1.175 1.175 0 01-.234-.737V2H.16a.151.151 0 01-.114-.047.166.166 0 01-.045-.12V1.5c0-.049.015-.089.045-.12a.151.151 0 01.114-.047h1.536l.348-.87a.714.714 0 01.269-.328A.68.68 0 012.705 0h1.59a.68.68 0 01.393.135c.13.09.219.2.269.329l.348.87H6.84c.046 0 .084.015.114.046S7 1.451 7 1.5z"/></svg>