<svg width="8" height="8" viewBox="0 0 8 8" fill="none" xmlns="http://www.w3.org/2000/svg">
<path d="M1.89062 7.33333L2.36458 6.85938L1.14062 5.63542L0.666667 6.10938V6.66667H1.33333V7.33333H1.89062ZM4.61458 2.5C4.61458 2.42361 4.57639 2.38542 4.5 2.38542C4.46528 2.38542 4.43576 2.39757 4.41146 2.42188L1.58854 5.24479C1.56424 5.2691 1.55208 5.29861 1.55208 5.33333C1.55208 5.40972 1.59028 5.44792 1.66667 5.44792C1.70139 5.44792 1.7309 5.43576 1.75521 5.41146L4.57812 2.58854C4.60243 2.56424 4.61458 2.53472 4.61458 2.5ZM4.33333 1.5L6.5 3.66667L2.16667 8H0V5.83333L4.33333 1.5ZM7.89062 2C7.89062 2.18403 7.82639 2.34028 7.69792 2.46875L6.83333 3.33333L4.66667 1.16667L5.53125 0.307292C5.65625 0.175347 5.8125 0.109375 6 0.109375C6.18403 0.109375 6.34201 0.175347 6.47396 0.307292L7.69792 1.52604C7.82639 1.66146 7.89062 1.81944 7.89062 2Z"/>
</svg>
