<svg width="12" height="12" viewBox="0 0 12 12" fill="none" xmlns="http://www.w3.org/2000/svg">
<path d="M9.23077 10.56C9.23077 10.43 9.1851 10.3175 9.09375 10.2225C9.0024 10.1275 8.89423 10.08 8.76923 10.08C8.64423 10.08 8.53606 10.1275 8.44471 10.2225C8.35337 10.3175 8.30769 10.43 8.30769 10.56C8.30769 10.69 8.35337 10.8025 8.44471 10.8975C8.53606 10.9925 8.64423 11.04 8.76923 11.04C8.89423 11.04 9.0024 10.9925 9.09375 10.8975C9.1851 10.8025 9.23077 10.69 9.23077 10.56ZM11.0769 10.56C11.0769 10.43 11.0312 10.3175 10.9399 10.2225C10.8486 10.1275 10.7404 10.08 10.6154 10.08C10.4904 10.08 10.3822 10.1275 10.2909 10.2225C10.1995 10.3175 10.1538 10.43 10.1538 10.56C10.1538 10.69 10.1995 10.8025 10.2909 10.8975C10.3822 10.9925 10.4904 11.04 10.6154 11.04C10.7404 11.04 10.8486 10.9925 10.9399 10.8975C11.0312 10.8025 11.0769 10.69 11.0769 10.56ZM12 8.88V11.28C12 11.48 11.9327 11.65 11.7981 11.79C11.6635 11.93 11.5 12 11.3077 12H0.692308C0.5 12 0.336538 11.93 0.201923 11.79C0.0673077 11.65 0 11.48 0 11.28V8.88C0 8.68 0.0673077 8.51 0.201923 8.37C0.336538 8.23 0.5 8.16 0.692308 8.16H3.77163C3.8726 8.44 4.04207 8.67 4.28005 8.85C4.51803 9.03 4.78365 9.12 5.07692 9.12H6.92308C7.21635 9.12 7.48197 9.03 7.71995 8.85C7.95793 8.67 8.1274 8.44 8.22837 8.16H11.3077C11.5 8.16 11.6635 8.23 11.7981 8.37C11.9327 8.51 12 8.68 12 8.88ZM9.65625 4.02C9.57452 4.22 9.43269 4.32 9.23077 4.32H7.38462V7.68C7.38462 7.81 7.33894 7.9225 7.2476 8.0175C7.15625 8.1125 7.04808 8.16 6.92308 8.16H5.07692C4.95192 8.16 4.84375 8.1125 4.7524 8.0175C4.66106 7.9225 4.61538 7.81 4.61538 7.68V4.32H2.76923C2.56731 4.32 2.42548 4.22 2.34375 4.02C2.26202 3.825 2.29567 3.6525 2.44471 3.5025L5.67548 0.1425C5.76202 0.0475 5.87019 0 6 0C6.12981 0 6.23798 0.0475 6.32452 0.1425L9.55529 3.5025C9.70433 3.6525 9.73798 3.825 9.65625 4.02Z"/>
</svg>
