<svg width="12" height="12" viewBox="0 0 12 12" fill="none" xmlns="http://www.w3.org/2000/svg">
<path d="M0.923077 11.1429H3V9.21429H0.923077V11.1429ZM3.46154 11.1429H5.76923V9.21429H3.46154V11.1429ZM0.923077 8.78571H3V6.64286H0.923077V8.78571ZM3.46154 8.78571H5.76923V6.64286H3.46154V8.78571ZM0.923077 6.21429H3V4.28571H0.923077V6.21429ZM6.23077 11.1429H8.53846V9.21429H6.23077V11.1429ZM3.46154 6.21429H5.76923V4.28571H3.46154V6.21429ZM9 11.1429H11.0769V9.21429H9V11.1429ZM6.23077 8.78571H8.53846V6.64286H6.23077V8.78571ZM3.69231 3V1.07143C3.69231 1.01339 3.66947 0.96317 3.6238 0.920759C3.57812 0.878348 3.52404 0.857143 3.46154 0.857143H3C2.9375 0.857143 2.88341 0.878348 2.83774 0.920759C2.79207 0.96317 2.76923 1.01339 2.76923 1.07143V3C2.76923 3.05804 2.79207 3.10826 2.83774 3.15067C2.88341 3.19308 2.9375 3.21429 3 3.21429H3.46154C3.52404 3.21429 3.57812 3.19308 3.6238 3.15067C3.66947 3.10826 3.69231 3.05804 3.69231 3ZM9 8.78571H11.0769V6.64286H9V8.78571ZM6.23077 6.21429H8.53846V4.28571H6.23077V6.21429ZM9 6.21429H11.0769V4.28571H9V6.21429ZM9.23077 3V1.07143C9.23077 1.01339 9.20793 0.96317 9.16226 0.920759C9.11659 0.878348 9.0625 0.857143 9 0.857143H8.53846C8.47596 0.857143 8.42188 0.878348 8.3762 0.920759C8.33053 0.96317 8.30769 1.01339 8.30769 1.07143V3C8.30769 3.05804 8.33053 3.10826 8.3762 3.15067C8.42188 3.19308 8.47596 3.21429 8.53846 3.21429H9C9.0625 3.21429 9.11659 3.19308 9.16226 3.15067C9.20793 3.10826 9.23077 3.05804 9.23077 3ZM12 2.57143V11.1429C12 11.375 11.9087 11.5759 11.726 11.7455C11.5433 11.9152 11.3269 12 11.0769 12H0.923077C0.673077 12 0.456731 11.9152 0.274038 11.7455C0.0913462 11.5759 0 11.375 0 11.1429V2.57143C0 2.33929 0.0913462 2.13839 0.274038 1.96875C0.456731 1.79911 0.673077 1.71429 0.923077 1.71429H1.84615V1.07143C1.84615 0.776786 1.95913 0.524554 2.1851 0.314732C2.41106 0.104911 2.68269 0 3 0H3.46154C3.77885 0 4.05048 0.104911 4.27644 0.314732C4.5024 0.524554 4.61538 0.776786 4.61538 1.07143V1.71429H7.38462V1.07143C7.38462 0.776786 7.4976 0.524554 7.72356 0.314732C7.94952 0.104911 8.22115 0 8.53846 0H9C9.31731 0 9.58894 0.104911 9.8149 0.314732C10.0409 0.524554 10.1538 0.776786 10.1538 1.07143V1.71429H11.0769C11.3269 1.71429 11.5433 1.79911 11.726 1.96875C11.9087 2.13839 12 2.33929 12 2.57143Z"/>
</svg>
