<svg width="12" height="12" viewBox="0 0 12 12" fill="none" xmlns="http://www.w3.org/2000/svg">
<path d="M6 0C6.8125 0 7.58929 0.158482 8.33036 0.475446C9.07143 0.792411 9.70982 1.21875 10.2455 1.75446C10.7812 2.29018 11.2076 2.92857 11.5246 3.66964C11.8415 4.41071 12 5.1875 12 6C12 6.80804 11.8426 7.58259 11.5279 8.32366C11.2132 9.06473 10.7879 9.70312 10.2522 10.2388C9.71652 10.7746 9.07812 11.202 8.33705 11.5212C7.59598 11.8404 6.81696 12 6 12C5.18304 12 4.40402 11.8415 3.66295 11.5246C2.92188 11.2076 2.2846 10.7801 1.75112 10.2422C1.21763 9.70424 0.792411 9.06585 0.475446 8.32701C0.158482 7.58817 0 6.8125 0 6C0 5.1875 0.158482 4.41071 0.475446 3.66964C0.792411 2.92857 1.21875 2.29018 1.75446 1.75446C2.29018 1.21875 2.92857 0.792411 3.66964 0.475446C4.41071 0.158482 5.1875 0 6 0ZM10.1451 9.04688C10.8103 8.1317 11.1429 7.11607 11.1429 6C11.1429 5.30357 11.0067 4.63839 10.7344 4.00446C10.4621 3.37054 10.096 2.82366 9.63616 2.36384C9.17634 1.90402 8.62946 1.53795 7.99554 1.26562C7.36161 0.993304 6.69643 0.857143 6 0.857143C5.30357 0.857143 4.63839 0.993304 4.00446 1.26562C3.37054 1.53795 2.82366 1.90402 2.36384 2.36384C1.90402 2.82366 1.53795 3.37054 1.26562 4.00446C0.993304 4.63839 0.857143 5.30357 0.857143 6C0.857143 7.11607 1.18973 8.1317 1.85491 9.04688C2.14955 7.58705 2.83259 6.85714 3.90402 6.85714C4.48884 7.42857 5.1875 7.71429 6 7.71429C6.8125 7.71429 7.51116 7.42857 8.09598 6.85714C9.16741 6.85714 9.85045 7.58705 10.1451 9.04688ZM8.57143 4.71429C8.57143 4.00446 8.32031 3.39844 7.81808 2.89621C7.31585 2.39397 6.70982 2.14286 6 2.14286C5.29018 2.14286 4.68415 2.39397 4.18192 2.89621C3.67969 3.39844 3.42857 4.00446 3.42857 4.71429C3.42857 5.42411 3.67969 6.03013 4.18192 6.53237C4.68415 7.0346 5.29018 7.28571 6 7.28571C6.70982 7.28571 7.31585 7.0346 7.81808 6.53237C8.32031 6.03013 8.57143 5.42411 8.57143 4.71429Z" fill="#1053AB"/>
</svg>
