<svg width="7" height="8" viewBox="0 0 7 8" fill="none" xmlns="http://www.w3.org/2000/svg">
<path d="M2.54545 6.5V2.83333C2.54545 2.78472 2.53054 2.74479 2.50071 2.71354C2.47088 2.68229 2.43277 2.66667 2.38636 2.66667H2.06818C2.02178 2.66667 1.98366 2.68229 1.95384 2.71354C1.92401 2.74479 1.90909 2.78472 1.90909 2.83333V6.5C1.90909 6.54861 1.92401 6.58854 1.95384 6.61979C1.98366 6.65104 2.02178 6.66667 2.06818 6.66667H2.38636C2.43277 6.66667 2.47088 6.65104 2.50071 6.61979C2.53054 6.58854 2.54545 6.54861 2.54545 6.5ZM3.81818 6.5V2.83333C3.81818 2.78472 3.80327 2.74479 3.77344 2.71354C3.74361 2.68229 3.70549 2.66667 3.65909 2.66667H3.34091C3.29451 2.66667 3.25639 2.68229 3.22656 2.71354C3.19673 2.74479 3.18182 2.78472 3.18182 2.83333V6.5C3.18182 6.54861 3.19673 6.58854 3.22656 6.61979C3.25639 6.65104 3.29451 6.66667 3.34091 6.66667H3.65909C3.70549 6.66667 3.74361 6.65104 3.77344 6.61979C3.80327 6.58854 3.81818 6.54861 3.81818 6.5ZM5.09091 6.5V2.83333C5.09091 2.78472 5.07599 2.74479 5.04616 2.71354C5.01634 2.68229 4.97822 2.66667 4.93182 2.66667H4.61364C4.56723 2.66667 4.52912 2.68229 4.49929 2.71354C4.46946 2.74479 4.45455 2.78472 4.45455 2.83333V6.5C4.45455 6.54861 4.46946 6.58854 4.49929 6.61979C4.52912 6.65104 4.56723 6.66667 4.61364 6.66667H4.93182C4.97822 6.66667 5.01634 6.65104 5.04616 6.61979C5.07599 6.58854 5.09091 6.54861 5.09091 6.5ZM2.38636 1.33333H4.61364L4.375 0.723958C4.3518 0.692708 4.32363 0.673611 4.29048 0.666667H2.71449C2.68134 0.673611 2.65317 0.692708 2.62997 0.723958L2.38636 1.33333ZM7 1.5V1.83333C7 1.88194 6.98509 1.92188 6.95526 1.95312C6.92543 1.98438 6.88731 2 6.84091 2H6.36364V6.9375C6.36364 7.22569 6.28575 7.47483 6.12997 7.6849C5.9742 7.89497 5.78693 8 5.56818 8H1.43182C1.21307 8 1.0258 7.89844 0.870028 7.69531C0.714252 7.49219 0.636364 7.24653 0.636364 6.95833V2H0.159091C0.112689 2 0.0745739 1.98438 0.0447443 1.95312C0.0149148 1.92188 0 1.88194 0 1.83333V1.5C0 1.45139 0.0149148 1.41146 0.0447443 1.38021C0.0745739 1.34896 0.112689 1.33333 0.159091 1.33333H1.69531L2.04332 0.463542C2.09304 0.335069 2.18253 0.225694 2.31179 0.135417C2.44105 0.0451389 2.57197 0 2.70455 0H4.29545C4.42803 0 4.55895 0.0451389 4.68821 0.135417C4.81747 0.225694 4.90696 0.335069 4.95668 0.463542L5.30469 1.33333H6.84091C6.88731 1.33333 6.92543 1.34896 6.95526 1.38021C6.98509 1.41146 7 1.45139 7 1.5Z"/>
</svg>
