<svg width="13" height="12" viewBox="0 0 13 12" fill="none" xmlns="http://www.w3.org/2000/svg">
<path fill-rule="evenodd" clip-rule="evenodd" d="M3.75 1C3.93234 1 4.10721 1.07526 4.23614 1.20921C4.36507 1.34316 4.4375 1.52485 4.4375 1.71429V3.14286C4.4375 3.3323 4.36507 3.51398 4.23614 3.64793C4.10721 3.78189 3.93234 3.85714 3.75 3.85714C3.56766 3.85714 3.3928 3.78189 3.26386 3.64793C3.13493 3.51398 3.0625 3.3323 3.0625 3.14286V1.71429C3.0625 1.52485 3.13493 1.34316 3.26386 1.20921C3.3928 1.07526 3.56766 1 3.75 1V1Z" stroke-linecap="round" stroke-linejoin="round"/>
<path d="M12 2.42871H4.4375" stroke-linecap="round" stroke-linejoin="round"/>
<path d="M3.0625 2.42871H1"  stroke-linecap="round" stroke-linejoin="round"/>
<path fill-rule="evenodd" clip-rule="evenodd" d="M3.75 8.14258C3.93234 8.14258 4.10721 8.21783 4.23614 8.35179C4.36507 8.48574 4.4375 8.66742 4.4375 8.85686V10.2854C4.4375 10.4749 4.36507 10.6566 4.23614 10.7905C4.10721 10.9245 3.93234 10.9997 3.75 10.9997C3.56766 10.9997 3.3928 10.9245 3.26386 10.7905C3.13493 10.6566 3.0625 10.4749 3.0625 10.2854V8.85686C3.0625 8.66742 3.13493 8.48574 3.26386 8.35179C3.3928 8.21783 3.56766 8.14258 3.75 8.14258Z" stroke-linecap="round" stroke-linejoin="round"/>
<path d="M12 9.57129H4.4375"  stroke-linecap="round" stroke-linejoin="round"/>
<path d="M3.0625 9.57129H1"  stroke-linecap="round" stroke-linejoin="round"/>
<path fill-rule="evenodd" clip-rule="evenodd" d="M9.25 4.57129C9.43234 4.57129 9.6072 4.64654 9.73613 4.7805C9.86507 4.91445 9.9375 5.09613 9.9375 5.28557V6.71415C9.9375 6.90359 9.86507 7.08527 9.73613 7.21922C9.6072 7.35318 9.43234 7.42843 9.25 7.42843C9.06766 7.42843 8.8928 7.35318 8.76386 7.21922C8.63493 7.08527 8.5625 6.90359 8.5625 6.71415V5.28557C8.5625 5.09613 8.63493 4.91445 8.76386 4.7805C8.8928 4.64654 9.06766 4.57129 9.25 4.57129V4.57129Z" stroke-linecap="round" stroke-linejoin="round"/>
<path d="M8.5625 6H1"  stroke-linecap="round" stroke-linejoin="round"/>
<path d="M12 6H9.9375"  stroke-linecap="round" stroke-linejoin="round"/>
</svg>
