<svg width="12" height="12" viewBox="0 0 12 12" fill="none" xmlns="http://www.w3.org/2000/svg">
<path d="M8 6C8 5.44792 7.80469 4.97656 7.41406 4.58594C7.02344 4.19531 6.55208 4 6 4C5.44792 4 4.97656 4.19531 4.58594 4.58594C4.19531 4.97656 4 5.44792 4 6C4 6.55208 4.19531 7.02344 4.58594 7.41406C4.97656 7.80469 5.44792 8 6 8C6.55208 8 7.02344 7.80469 7.41406 7.41406C7.80469 7.02344 8 6.55208 8 6ZM12 5.14844V6.88281C12 6.94531 11.9792 7.00521 11.9375 7.0625C11.8958 7.11979 11.8438 7.15365 11.7812 7.16406L10.3359 7.38281C10.237 7.66406 10.1354 7.90104 10.0312 8.09375C10.2135 8.35417 10.4922 8.71354 10.8672 9.17188C10.9193 9.23438 10.9453 9.29948 10.9453 9.36719C10.9453 9.4349 10.9219 9.49479 10.875 9.54688C10.7344 9.73958 10.4766 10.0208 10.1016 10.3906C9.72656 10.7604 9.48177 10.9453 9.36719 10.9453C9.30469 10.9453 9.23698 10.9219 9.16406 10.875L8.08594 10.0312C7.85677 10.151 7.61979 10.25 7.375 10.3281C7.29167 11.0365 7.21615 11.5208 7.14844 11.7812C7.11198 11.9271 7.01823 12 6.86719 12H5.13281C5.0599 12 4.99609 11.9779 4.94141 11.9336C4.88672 11.8893 4.85677 11.8333 4.85156 11.7656L4.63281 10.3281C4.3776 10.2448 4.14323 10.1484 3.92969 10.0391L2.82812 10.875C2.77604 10.9219 2.71094 10.9453 2.63281 10.9453C2.5599 10.9453 2.49479 10.9167 2.4375 10.8594C1.78125 10.2656 1.35156 9.82812 1.14844 9.54688C1.11198 9.49479 1.09375 9.4349 1.09375 9.36719C1.09375 9.30469 1.11458 9.24479 1.15625 9.1875C1.23438 9.07812 1.36719 8.90495 1.55469 8.66797C1.74219 8.43099 1.88281 8.2474 1.97656 8.11719C1.83594 7.85677 1.72917 7.59896 1.65625 7.34375L0.226562 7.13281C0.158854 7.1224 0.104167 7.08984 0.0625 7.03516C0.0208333 6.98047 0 6.91927 0 6.85156V5.11719C0 5.05469 0.0208333 4.99479 0.0625 4.9375C0.104167 4.88021 0.153646 4.84635 0.210938 4.83594L1.66406 4.61719C1.73698 4.3776 1.83854 4.13802 1.96875 3.89844C1.76042 3.60156 1.48177 3.24219 1.13281 2.82031C1.08073 2.75781 1.05469 2.69531 1.05469 2.63281C1.05469 2.58073 1.07812 2.52083 1.125 2.45312C1.26042 2.26562 1.51693 1.98568 1.89453 1.61328C2.27214 1.24089 2.51823 1.05469 2.63281 1.05469C2.70052 1.05469 2.76823 1.08073 2.83594 1.13281L3.91406 1.96875C4.14323 1.84896 4.38021 1.75 4.625 1.67188C4.70833 0.963542 4.78385 0.479167 4.85156 0.21875C4.88802 0.0729167 4.98177 0 5.13281 0H6.86719C6.9401 0 7.00391 0.0221354 7.05859 0.0664062C7.11328 0.110677 7.14323 0.166667 7.14844 0.234375L7.36719 1.67188C7.6224 1.75521 7.85677 1.85156 8.07031 1.96094L9.17969 1.125C9.22656 1.07812 9.28906 1.05469 9.36719 1.05469C9.4349 1.05469 9.5 1.08073 9.5625 1.13281C10.2344 1.7526 10.6641 2.19531 10.8516 2.46094C10.888 2.5026 10.9062 2.5599 10.9062 2.63281C10.9062 2.69531 10.8854 2.75521 10.8438 2.8125C10.7656 2.92188 10.6328 3.09505 10.4453 3.33203C10.2578 3.56901 10.1172 3.7526 10.0234 3.88281C10.1589 4.14323 10.2656 4.39844 10.3438 4.64844L11.7734 4.86719C11.8411 4.8776 11.8958 4.91016 11.9375 4.96484C11.9792 5.01953 12 5.08073 12 5.14844Z"/>
</svg>
